<svg width="32" height="32" viewBox="0 0 32 32" fill="none" xmlns="http://www.w3.org/2000/svg">
<g clip-path="url(#clip0_1_348)">
<path d="M21.333 5.33325H10.6663C7.72082 5.33325 5.33301 7.72107 5.33301 10.6666V21.3333C5.33301 24.2788 7.72082 26.6666 10.6663 26.6666H21.333C24.2785 26.6666 26.6663 24.2788 26.6663 21.3333V10.6666C26.6663 7.72107 24.2785 5.33325 21.333 5.33325Z" stroke="#555351" stroke-width="2" stroke-linecap="round" stroke-linejoin="round"/>
<path d="M16 20C18.2091 20 20 18.2091 20 16C20 13.7909 18.2091 12 16 12C13.7909 12 12 13.7909 12 16C12 18.2091 13.7909 20 16 20Z" stroke="#555351" stroke-width="2" stroke-linecap="round" stroke-linejoin="round"/>
<path d="M22 10V10.001" stroke="#555351" stroke-width="2" stroke-linecap="round" stroke-linejoin="round"/>
</g>
<defs>
<clipPath id="clip0_1_348">
<rect width="32" height="32" fill="white"/>
</clipPath>
</defs>
</svg>
