<svg width="32" height="32" viewBox="0 0 32 32" fill="none" xmlns="http://www.w3.org/2000/svg">
<g clip-path="url(#clip0_1_258)">
<path d="M21.3333 5.33337H10.6667C7.72114 5.33337 5.33333 7.72119 5.33333 10.6667V21.3334C5.33333 24.2789 7.72114 26.6667 10.6667 26.6667H21.3333C24.2788 26.6667 26.6667 24.2789 26.6667 21.3334V10.6667C26.6667 7.72119 24.2788 5.33337 21.3333 5.33337Z" stroke="#555351" stroke-width="2" stroke-linecap="round" stroke-linejoin="round"/>
<path d="M16 20C18.2091 20 20 18.2091 20 16C20 13.7909 18.2091 12 16 12C13.7909 12 12 13.7909 12 16C12 18.2091 13.7909 20 16 20Z" stroke="#555351" stroke-width="2" stroke-linecap="round" stroke-linejoin="round"/>
<path d="M22 10V10.001" stroke="#555351" stroke-width="2" stroke-linecap="round" stroke-linejoin="round"/>
</g>
<defs>
<clipPath id="clip0_1_258">
<rect width="32" height="32" fill="white"/>
</clipPath>
</defs>
</svg>
